<svg width="237" height="59" viewBox="0 0 237 59" fill="none" xmlns="http://www.w3.org/2000/svg">
<path d="M74.0762 37.6143V27.4425C74.0762 26.3878 74.0879 25.6026 74.1113 25.087L74.1465 23.9151C73.6465 25.5245 73.2754 26.6612 73.0332 27.3253L71.1113 32.4581H69.5059L67.5605 27.3253C67.4199 26.9659 67.0449 25.8292 66.4355 23.9151L66.4824 27.4425V37.6143H64.6074V21.8058H67.3848L69.5527 27.5362C69.7168 27.9503 69.9824 28.8526 70.3496 30.2433L70.6543 29.1886L71.1699 27.5479L73.3379 21.8058H75.9746V37.6143H74.0762ZM81.2832 31.7198C81.2832 33.1417 81.5957 34.255 82.2207 35.0597C82.8535 35.8643 83.7168 36.2667 84.8105 36.2667C85.6152 36.2667 86.3184 36.0948 86.9199 35.7511C87.5293 35.3995 87.9355 34.9229 88.1387 34.3214L89.9902 34.8487C89.6465 35.8175 89.0137 36.5597 88.0918 37.0753C87.1777 37.5909 86.084 37.8487 84.8105 37.8487C82.9668 37.8487 81.5488 37.2745 80.5566 36.1261C79.5645 34.9776 79.0684 33.3331 79.0684 31.1925C79.0684 29.1065 79.5527 27.505 80.5215 26.3878C81.498 25.2628 82.9043 24.7003 84.7402 24.7003C86.5762 24.7003 87.9668 25.2589 88.9121 26.3761C89.8574 27.4933 90.3301 29.1808 90.3301 31.4386V31.7198H81.2832ZM84.7637 26.2589C83.7168 26.2589 82.8887 26.6026 82.2793 27.2901C81.6699 27.9698 81.3457 28.9073 81.3066 30.1026H88.1504C87.9316 27.5401 86.8027 26.2589 84.7637 26.2589ZM104.17 26.8565C103.295 26.7081 102.467 26.6339 101.686 26.6339C100.428 26.6339 99.4121 27.1065 98.6387 28.0518C97.8652 28.9972 97.4785 30.2003 97.4785 31.6612V37.6143H95.3691V29.3995C95.3691 28.8058 95.3145 28.1065 95.2051 27.3018C95.1035 26.4972 94.9551 25.7081 94.7598 24.9347H96.7637C97.0762 26.0128 97.2637 26.9893 97.3262 27.8643H97.3848C97.7754 26.9893 98.1582 26.3487 98.5332 25.9425C98.9082 25.5284 99.3535 25.2198 99.8691 25.0167C100.385 24.8058 101.014 24.7003 101.756 24.7003C102.568 24.7003 103.373 24.7667 104.17 24.8995V26.8565ZM107.861 31.2628C107.861 29.1534 108.365 27.5323 109.373 26.3995C110.381 25.2667 111.838 24.7003 113.744 24.7003C115.166 24.7003 116.338 25.044 117.26 25.7315C118.182 26.4112 118.752 27.3292 118.971 28.4854L116.721 28.6495C116.596 27.9386 116.283 27.38 115.783 26.9737C115.283 26.5597 114.572 26.3526 113.65 26.3526C112.416 26.3526 111.51 26.7354 110.932 27.5011C110.361 28.2667 110.076 29.505 110.076 31.2159C110.076 32.9503 110.361 34.2198 110.932 35.0245C111.51 35.8214 112.412 36.2198 113.639 36.2198C114.482 36.2198 115.182 36.0128 115.736 35.5987C116.291 35.1847 116.635 34.5518 116.768 33.7003L118.994 33.8409C118.893 34.5909 118.607 35.2745 118.139 35.8917C117.678 36.5011 117.064 36.9815 116.299 37.3331C115.533 37.6768 114.678 37.8487 113.732 37.8487C111.818 37.8487 110.361 37.2862 109.361 36.1612C108.361 35.0362 107.861 33.4034 107.861 31.2628ZM122.92 20.2237H125.041V24.794C125.041 25.255 125.006 26.0245 124.936 27.1026H124.971C125.791 25.5011 127.115 24.7003 128.943 24.7003C131.678 24.7003 133.045 26.1886 133.045 29.1651V37.6143H130.924V29.4698C130.924 28.4073 130.717 27.6183 130.303 27.1026C129.896 26.587 129.244 26.3292 128.346 26.3292C127.377 26.3292 126.58 26.6847 125.955 27.3956C125.338 28.0987 125.029 29.0558 125.029 30.2667V37.6143H122.92V20.2237ZM148.068 36.3136C148.271 36.3136 148.502 36.2862 148.76 36.2315V37.544C148.229 37.669 147.686 37.7315 147.131 37.7315C146.35 37.7315 145.779 37.5284 145.42 37.1222C145.068 36.7081 144.869 36.0636 144.822 35.1886H144.752C144.244 36.1339 143.643 36.8136 142.947 37.2276C142.26 37.6417 141.408 37.8487 140.393 37.8487C139.158 37.8487 138.229 37.5128 137.604 36.8409C136.979 36.169 136.666 35.2472 136.666 34.0753C136.666 31.3487 138.439 29.9659 141.986 29.9268L144.752 29.88V29.1886C144.752 28.1651 144.545 27.4308 144.131 26.9854C143.717 26.5323 143.057 26.3058 142.15 26.3058C141.229 26.3058 140.564 26.4698 140.158 26.7979C139.752 27.1261 139.51 27.6339 139.432 28.3214L137.229 28.1222C137.588 25.8409 139.24 24.7003 142.186 24.7003C143.748 24.7003 144.92 25.0675 145.701 25.8018C146.49 26.5284 146.885 27.5831 146.885 28.9659V34.4268C146.885 35.0518 146.967 35.5245 147.131 35.8448C147.295 36.1573 147.607 36.3136 148.068 36.3136ZM140.932 36.2433C141.682 36.2433 142.346 36.0636 142.924 35.7042C143.502 35.3448 143.951 34.8643 144.271 34.2628C144.592 33.6612 144.752 33.0401 144.752 32.3995V31.3565L142.525 31.4034C141.604 31.419 140.9 31.5206 140.416 31.7081C139.932 31.8956 139.553 32.1847 139.279 32.5753C139.014 32.9581 138.881 33.4698 138.881 34.1104C138.881 34.7511 139.053 35.2667 139.396 35.6573C139.748 36.0479 140.26 36.2433 140.932 36.2433ZM159.752 37.6143V29.4698C159.752 28.4073 159.545 27.6183 159.131 27.1026C158.725 26.587 158.072 26.3292 157.174 26.3292C156.205 26.3292 155.408 26.6847 154.783 27.3956C154.166 28.0987 153.857 29.0558 153.857 30.2667V37.6143H151.748V27.6417C151.748 26.1651 151.725 25.2628 151.678 24.9347H153.67C153.678 24.9737 153.686 25.0792 153.693 25.2511C153.701 25.4229 153.709 25.6222 153.717 25.8487C153.732 26.0675 153.748 26.4854 153.764 27.1026H153.799C154.619 25.5011 155.971 24.7003 157.854 24.7003C159.205 24.7003 160.213 25.0675 160.877 25.8018C161.541 26.5284 161.873 27.6495 161.873 29.1651V37.6143H159.752ZM166.221 26.5987V24.9347H168.213L168.893 21.63H170.299V24.9347H175.361V26.5987H170.299V34.2393C170.299 34.8565 170.463 35.3136 170.791 35.6104C171.127 35.9073 171.674 36.0558 172.432 36.0558C173.479 36.0558 174.639 35.9229 175.912 35.6573V37.2628C174.592 37.6222 173.283 37.8018 171.986 37.8018C170.721 37.8018 169.771 37.5362 169.139 37.005C168.506 36.4659 168.189 35.6183 168.189 34.462V26.5987H166.221Z" fill="#5F5F5F"/>
<path d="M191.592 29.5518C191.592 32.1378 190.99 34.13 189.787 35.5284C188.592 36.919 186.877 37.6143 184.643 37.6143H180.307V21.8058H183.951C186.521 21.8058 188.436 22.4503 189.693 23.7393C190.959 25.0206 191.592 26.9581 191.592 29.5518ZM189.342 29.5518C189.342 27.4893 188.912 25.9893 188.053 25.0518C187.193 24.1065 185.83 23.6339 183.963 23.6339H182.545V35.7862H184.443C186.1 35.7862 187.33 35.2667 188.135 34.2276C188.939 33.1886 189.342 31.63 189.342 29.5518ZM201.553 35.9503H206.006V37.6143H194.498V35.9503H199.443V26.5987H195.705V24.9347H201.553V35.9503ZM199.209 22.4737V20.2237H201.553V22.4737H199.209ZM208.76 31.2628C208.76 29.1534 209.264 27.5323 210.271 26.3995C211.279 25.2667 212.736 24.7003 214.643 24.7003C216.064 24.7003 217.236 25.044 218.158 25.7315C219.08 26.4112 219.65 27.3292 219.869 28.4854L217.619 28.6495C217.494 27.9386 217.182 27.38 216.682 26.9737C216.182 26.5597 215.471 26.3526 214.549 26.3526C213.314 26.3526 212.408 26.7354 211.83 27.5011C211.26 28.2667 210.975 29.505 210.975 31.2159C210.975 32.9503 211.26 34.2198 211.83 35.0245C212.408 35.8214 213.311 36.2198 214.537 36.2198C215.381 36.2198 216.08 36.0128 216.635 35.5987C217.189 35.1847 217.533 34.5518 217.666 33.7003L219.893 33.8409C219.791 34.5909 219.506 35.2745 219.037 35.8917C218.576 36.5011 217.963 36.9815 217.197 37.3331C216.432 37.6768 215.576 37.8487 214.631 37.8487C212.717 37.8487 211.26 37.2862 210.26 36.1612C209.26 35.0362 208.76 33.4034 208.76 31.2628ZM225.424 31.7198C225.424 33.1417 225.736 34.255 226.361 35.0597C226.994 35.8643 227.857 36.2667 228.951 36.2667C229.756 36.2667 230.459 36.0948 231.061 35.7511C231.67 35.3995 232.076 34.9229 232.279 34.3214L234.131 34.8487C233.787 35.8175 233.154 36.5597 232.232 37.0753C231.318 37.5909 230.225 37.8487 228.951 37.8487C227.107 37.8487 225.689 37.2745 224.697 36.1261C223.705 34.9776 223.209 33.3331 223.209 31.1925C223.209 29.1065 223.693 27.505 224.662 26.3878C225.639 25.2628 227.045 24.7003 228.881 24.7003C230.717 24.7003 232.107 25.2589 233.053 26.3761C233.998 27.4933 234.471 29.1808 234.471 31.4386V31.7198H225.424ZM228.904 26.2589C227.857 26.2589 227.029 26.6026 226.42 27.2901C225.811 27.9698 225.486 28.9073 225.447 30.1026H232.291C232.072 27.5401 230.943 26.2589 228.904 26.2589Z" fill="black"/>
<rect width="60" height="58.125" rx="15" fill="#383838"/>
<circle cx="14.2969" cy="41.9531" r="3.51562" fill="white"/>
<circle cx="14.2969" cy="29.2969" r="3.51562" fill="white"/>
<circle cx="14.2969" cy="16.6406" r="3.51562" fill="white"/>
<circle cx="30.2344" cy="26.0156" r="3.51562" fill="white"/>
<circle cx="45.7031" cy="16.6406" r="3.51562" fill="white"/>
<circle cx="45.7031" cy="29.2969" r="3.51562" fill="white"/>
<circle cx="45.7031" cy="41.9531" r="3.51562" fill="white"/>
</svg>
